<svg width="230" height="57" viewBox="0 0 230 57" fill="none" xmlns="http://www.w3.org/2000/svg">
<path d="M147.838 0.449829L144.92 11.45C144.313 13.7436 145.679 16.1257 147.96 16.7371L158.863 19.6716C159.167 18.4784 158.619 17.2262 157.527 16.6781L151.632 13.7436C150.085 13.01 149.17 11.3909 149.322 9.70866L149.777 3.20302C149.87 1.92129 149.048 0.757613 147.833 0.454045" fill="#FABD00"/>
<path d="M150.937 11.4499C151.333 12.1541 151.97 12.6726 152.67 12.9172C152.851 12.9804 153.066 12.9804 153.247 12.8539L156.253 11.1126C157.409 10.4423 157.805 8.91178 157.075 7.75231C156.376 6.65188 154.921 6.34831 153.825 7.01869L150.878 8.73048C150.696 8.82323 150.574 9.00453 150.545 9.21956C150.393 9.95318 150.515 10.7458 150.941 11.4499" fill="#FABD00"/>
<path d="M127.486 11.1716L138.423 14.1061C140.7 14.7174 143.069 13.343 143.676 11.0493L146.594 0.0829313C145.409 -0.220637 144.165 0.327472 143.617 1.42791L140.7 7.35592C139.97 8.91592 138.36 9.83084 136.69 9.67906L130.218 9.21949C128.941 9.15624 127.79 9.95311 127.486 11.1758" fill="#40C1EF"/>
<path d="M138.423 8.08528C139.123 7.68895 139.637 7.04809 139.882 6.34398C139.941 6.16268 139.941 5.94765 139.823 5.76214L138.09 2.73911C137.424 1.57965 135.902 1.18332 134.75 1.91273C133.658 2.61684 133.355 4.07987 134.021 5.1803L135.724 8.14431C135.817 8.32982 135.998 8.45209 136.209 8.48161C136.939 8.60388 137.727 8.48161 138.427 8.08528" fill="#40C1EF"/>
<path d="M138.178 31.5528L141.096 20.5527C141.703 18.259 140.337 15.8769 138.056 15.2655L127.153 12.331C126.849 13.5242 127.397 14.7764 128.489 15.3245L134.384 18.259C135.931 18.9927 136.846 20.6117 136.694 22.294L136.239 28.7996C136.146 30.0813 136.968 31.245 138.183 31.5486" fill="#8FC745"/>
<path d="M135.079 20.5526C134.683 19.8485 134.046 19.3299 133.347 19.0854C133.165 19.0221 132.95 19.0221 132.769 19.1486L129.763 20.8899C128.608 21.5603 128.211 23.0908 128.941 24.2502C129.641 25.3507 131.099 25.6542 132.191 24.9839L135.138 23.2721C135.32 23.1793 135.442 22.998 135.472 22.783C135.623 22.0494 135.501 21.2567 135.075 20.5526" fill="#8FC745"/>
<path d="M158.53 20.8268L147.593 17.8923C145.316 17.281 142.947 18.6555 142.34 20.9491L139.422 31.9155C140.607 32.2233 141.851 31.671 142.399 30.5705L145.316 24.6425C146.046 23.0825 147.656 22.1676 149.326 22.3194L155.798 22.779C157.075 22.8422 158.226 22.0453 158.534 20.8226" fill="#FF564D"/>
<path d="M147.593 23.9131C146.893 24.3094 146.379 24.9503 146.134 25.6544C146.075 25.8357 146.075 26.0507 146.193 26.2362L147.926 29.2635C148.592 30.4229 150.114 30.8235 151.265 30.0899C152.357 29.3858 152.661 27.9227 151.995 26.8223L150.291 23.8583C150.199 23.6728 150.017 23.5505 149.807 23.521C149.077 23.3987 148.289 23.521 147.589 23.9173" fill="#FF564D"/>
<path d="M39.0001 9.21528C40.4294 10.5898 41.1588 12.6684 41.1588 15.3878V25.8061C41.1588 26.0211 40.9775 26.2024 40.7624 26.2024H37.1491C36.9383 26.2024 36.7528 26.0211 36.7528 25.8061V15.9697C36.7528 14.3211 36.3565 13.0689 35.5976 12.2425C34.8387 11.4162 33.7129 10.9903 32.2878 10.9903C30.6772 10.9903 29.3997 11.4794 28.4595 12.4576C27.5193 13.4357 27.0639 14.8397 27.0639 16.6738V25.8103C27.0639 26.0254 26.8826 26.2067 26.6676 26.2067H23.0838C22.8688 26.2067 22.6875 26.0254 22.6875 25.8103V8.60815C22.6875 7.57096 23.9313 7.01863 24.6944 7.72274L26.8826 9.76761C27.612 8.8822 28.5228 8.24134 29.6148 7.78177C30.7068 7.3222 31.9548 7.11139 33.3503 7.11139C35.6608 7.1409 37.5708 7.8155 39.0001 9.2195" fill="white"/>
<path d="M49.5701 25.1949C48.0228 24.3685 46.8043 23.209 45.9568 21.7418C45.0756 20.2745 44.6498 18.5965 44.6498 16.7329C44.6498 14.8693 45.0756 13.2208 45.9568 11.7535C46.838 10.2863 48.0228 9.15635 49.5406 8.32997C51.0584 7.50359 52.8208 7.10727 54.794 7.10727C56.6449 7.10727 58.2555 7.47408 59.6553 8.23722C60.9328 8.94133 61.9321 9.88576 62.632 11.138C62.7247 11.3193 62.6615 11.5638 62.4802 11.6566L59.7439 13.2461C59.5626 13.3388 59.3475 13.3093 59.2295 13.1238C58.7109 12.3902 58.1037 11.8421 57.4081 11.4753C56.5859 11.0494 55.7089 10.8344 54.7645 10.8344C53.1244 10.8344 51.7583 11.3825 50.6958 12.4534C49.6334 13.5244 49.0852 14.9579 49.0852 16.7329C49.0852 18.5079 49.6334 19.9415 50.6958 21.0124C51.7583 22.0833 53.1244 22.6314 54.7982 22.6314C55.7722 22.6314 56.6492 22.4164 57.4418 21.9905C58.1417 21.5942 58.7488 21.0419 59.2632 20.342C59.3855 20.1902 59.5963 20.127 59.7818 20.2197L62.4844 21.8092C62.6657 21.9315 62.7289 22.1465 62.6362 22.3616C61.9068 23.6138 60.937 24.5919 59.63 25.2961C58.2345 26.0592 56.6239 26.4555 54.7982 26.4555C52.8545 26.4555 51.1217 26.0297 49.5743 25.2033" fill="white"/>
<path d="M78.8224 21.0419C79.8848 19.971 80.4034 18.5374 80.4034 16.7624C80.4034 14.9874 79.8848 13.5834 78.8224 12.483C77.7599 11.412 76.4233 10.8639 74.8127 10.8639C73.2021 10.8639 71.8656 11.4162 70.8326 12.483C69.7996 13.5539 69.2853 14.9874 69.2853 16.7624C69.2853 18.5374 69.7996 19.9415 70.8326 21.0419C71.8656 22.1128 73.2021 22.6609 74.8127 22.6609C76.4233 22.6609 77.7894 22.1128 78.8224 21.0419ZM69.7111 25.1949C68.1933 24.3685 67.0085 23.209 66.1568 21.7418C65.3051 20.2745 64.8835 18.5965 64.8835 16.7329C64.8835 14.8693 65.3094 13.2208 66.1568 11.7535C67.0085 10.2863 68.1933 9.15635 69.7111 8.32997C71.2289 7.50359 72.9323 7.10727 74.8464 7.10727C76.7606 7.10727 78.4935 7.50359 80.0113 8.32997C81.5292 9.15635 82.7139 10.2863 83.5656 11.7535C84.4173 13.2208 84.8431 14.8693 84.8431 16.7329C84.8431 18.5965 84.4173 20.245 83.5656 21.7418C82.7139 23.209 81.5292 24.3685 80.0113 25.1949C78.4935 26.0212 76.7606 26.4176 74.8464 26.4176C72.9323 26.4471 71.2332 26.0212 69.7111 25.1949Z" fill="white"/>
<path d="M92.3395 26.2066C92.5503 26.2066 92.7359 26.0253 92.7359 25.8102V14.9029C92.7359 13.5874 93.1322 12.6725 93.9206 11.9684C94.709 11.2643 95.683 10.8975 97.2303 10.8975C97.2303 10.8975 97.9597 10.8975 98.7482 10.9902C98.9927 11.0197 99.174 10.8384 99.174 10.5939V7.75216C99.174 7.57086 99.0222 7.38535 98.8409 7.35584C98.1115 7.23357 97.2303 7.14081 96.4419 7.14081C93.7688 7.14081 91.9769 7.81119 90.5181 9.12665C89.0593 10.4716 88.3299 12.4575 88.3299 15.1474V25.8102C88.3299 26.0253 88.5112 26.2066 88.7262 26.2066H92.3395Z" fill="white"/>
<path d="M6.13039 11.9052C7.10012 11.0789 8.28488 10.653 9.68466 10.653C11.0845 10.653 12.2987 11.0789 13.2685 11.9347C14.1201 12.6684 14.664 13.617 14.9086 14.747H4.43125C4.70531 13.5875 5.25341 12.6389 6.1346 11.9052M17.9527 11.783C17.1305 10.3157 16.009 9.15626 14.5797 8.35939C13.1504 7.53301 11.5103 7.13669 9.68888 7.13669C7.86747 7.13669 6.16412 7.53301 4.70531 8.35939C3.21698 9.18577 2.09125 10.3452 1.24379 11.8125C0.425839 13.2797 0 14.9283 0 16.7623C0 18.5964 0.425839 20.2744 1.27752 21.7754C2.12919 23.2427 3.34346 24.4021 4.92455 25.2285C6.50563 26.0549 8.29753 26.4512 10.3635 26.4512C11.9741 26.4512 13.4329 26.2067 14.7062 25.6881C15.8909 25.2285 16.8649 24.5286 17.6828 23.6432C17.8051 23.4914 17.8051 23.2764 17.6828 23.1246L15.8277 20.987C15.6759 20.8352 15.4314 20.8057 15.2796 20.9575C14.0021 22.1507 12.3915 22.7283 10.4815 22.7283C8.87093 22.7283 7.50488 22.332 6.44239 21.5056C5.35039 20.6792 4.68001 19.5788 4.43547 18.2043H18.5556C18.8887 18.2043 19.1627 17.9597 19.1627 17.6224C19.1922 17.3189 19.1922 17.1038 19.1922 16.8888C19.1627 14.9325 18.7664 13.2544 17.9485 11.7872" fill="white"/>
<path d="M113.024 21.0418C112.202 22.3236 109.925 23.2427 108.285 23.2427C107.16 23.2427 106.283 22.9982 105.642 22.5386C105.001 22.079 104.701 21.4382 104.701 20.6455C104.701 18.9675 105.979 18.1411 108.5 18.1411H113.029V21.0418H113.024ZM113.754 26.2067H117.004C117.219 26.2067 117.401 26.0254 117.401 25.8104V15.1476C117.401 12.4576 116.671 10.4422 115.213 9.12679C113.754 7.78181 111.266 7.04819 108.5 7.04819C106.738 7.04819 105.616 7.17046 104.398 7.35176C104.217 7.38127 104.065 7.56678 104.065 7.74808V10.5603C104.065 10.8048 104.276 10.9861 104.52 10.9566C106.219 10.7121 110.018 10.2525 111.84 11.842C112.628 12.5461 113.024 13.5538 113.024 14.8651V15.1391H108.163C105.46 15.1391 103.483 15.6577 102.239 16.6654C100.995 17.7026 100.355 19.0476 100.355 20.7593C100.355 21.8303 100.629 22.8042 101.206 23.6601C101.784 24.516 102.602 25.1864 103.635 25.6755C104.697 26.1645 105.912 26.4091 107.311 26.4091C109.074 26.4091 111.625 25.7387 113.294 24.0269V25.7682C113.357 26.0128 113.539 26.1941 113.749 26.1941" fill="white"/>
<path d="M4.83 52.817C5.208 52.817 5.53 52.7727 5.796 52.684C6.06667 52.5953 6.286 52.474 6.454 52.32C6.62667 52.166 6.75267 51.984 6.832 51.774C6.91133 51.5593 6.951 51.326 6.951 51.074C6.951 50.5747 6.77833 50.1827 6.433 49.898C6.08767 49.6087 5.55333 49.464 4.83 49.464H2.73V52.817H4.83ZM2.73 45.117V48.407H4.445C5.17767 48.407 5.72133 48.26 6.076 47.966C6.43533 47.6673 6.615 47.266 6.615 46.762C6.615 46.188 6.44467 45.7703 6.104 45.509C5.76333 45.2477 5.23367 45.117 4.515 45.117H2.73ZM4.515 43.948C5.145 43.948 5.684 44.0087 6.132 44.13C6.58467 44.2513 6.95567 44.4263 7.245 44.655C7.53433 44.8837 7.74667 45.1613 7.882 45.488C8.022 45.81 8.092 46.1763 8.092 46.587C8.092 46.8297 8.05467 47.063 7.98 47.287C7.90533 47.511 7.791 47.721 7.637 47.917C7.483 48.1083 7.28933 48.281 7.056 48.435C6.82267 48.589 6.54733 48.7173 6.23 48.82C7.69067 49.1093 8.421 49.8723 8.421 51.109C8.421 51.5383 8.34167 51.9303 8.183 52.285C8.02433 52.635 7.79333 52.9383 7.49 53.195C7.18667 53.4517 6.81333 53.65 6.37 53.79C5.92667 53.93 5.42267 54 4.858 54H1.239V43.948H4.515ZM14.2508 52.803C14.6521 52.803 15.0115 52.7353 15.3288 52.6C15.6461 52.4647 15.9145 52.2757 16.1338 52.033C16.3531 51.7857 16.5211 51.494 16.6378 51.158C16.7545 50.8173 16.8128 50.4417 16.8128 50.031V43.948H18.2968V50.031C18.2968 50.619 18.2035 51.1627 18.0168 51.662C17.8301 52.1613 17.5618 52.593 17.2118 52.957C16.8618 53.321 16.4371 53.6057 15.9378 53.811C15.4385 54.0163 14.8761 54.119 14.2508 54.119C13.6255 54.119 13.0631 54.0163 12.5638 53.811C12.0645 53.6057 11.6398 53.321 11.2898 52.957C10.9398 52.593 10.6715 52.1613 10.4848 51.662C10.2981 51.1627 10.2048 50.619 10.2048 50.031V43.948H11.6958V50.024C11.6958 50.4347 11.7518 50.8103 11.8638 51.151C11.9805 51.4917 12.1485 51.7857 12.3678 52.033C12.5871 52.2757 12.8555 52.4647 13.1728 52.6C13.4901 52.7353 13.8495 52.803 14.2508 52.803ZM29.4241 48.974C29.4241 49.7253 29.3027 50.409 29.0601 51.025C28.8221 51.641 28.4837 52.1707 28.0451 52.614C27.6064 53.0527 27.0814 53.3933 26.4701 53.636C25.8587 53.8787 25.1797 54 24.4331 54H20.6531V43.948H24.4331C25.1797 43.948 25.8587 44.0693 26.4701 44.312C27.0814 44.5547 27.6064 44.8977 28.0451 45.341C28.4837 45.7797 28.8221 46.3093 29.0601 46.93C29.3027 47.546 29.4241 48.2273 29.4241 48.974ZM27.8981 48.974C27.8981 48.3767 27.8164 47.8423 27.6531 47.371C27.4897 46.895 27.2564 46.4937 26.9531 46.167C26.6544 45.8357 26.2904 45.5837 25.8611 45.411C25.4364 45.2383 24.9604 45.152 24.4331 45.152H22.1511V52.796H24.4331C24.9604 52.796 25.4364 52.7097 25.8611 52.537C26.2904 52.3643 26.6544 52.1147 26.9531 51.788C27.2564 51.4567 27.4897 51.0553 27.6531 50.584C27.8164 50.1127 27.8981 49.576 27.8981 48.974ZM39.5075 49.107V53.027C38.9988 53.391 38.4575 53.664 37.8835 53.846C37.3095 54.0233 36.6841 54.112 36.0075 54.112C35.1955 54.112 34.4605 53.986 33.8025 53.734C33.1491 53.482 32.5915 53.1297 32.1295 52.677C31.6675 52.2243 31.3105 51.683 31.0585 51.053C30.8111 50.423 30.6875 49.73 30.6875 48.974C30.6875 48.2133 30.8065 47.518 31.0445 46.888C31.2871 46.2533 31.6325 45.712 32.0805 45.264C32.5285 44.8113 33.0698 44.4613 33.7045 44.214C34.3438 43.962 35.0601 43.836 35.8535 43.836C36.2548 43.836 36.6258 43.8663 36.9665 43.927C37.3118 43.9877 37.6315 44.074 37.9255 44.186C38.2195 44.298 38.4901 44.4333 38.7375 44.592C38.9895 44.746 39.2228 44.921 39.4375 45.117L39.0105 45.789C38.9451 45.8963 38.8588 45.964 38.7515 45.992C38.6441 46.02 38.5275 45.9943 38.4015 45.915C38.2801 45.845 38.1448 45.7633 37.9955 45.67C37.8508 45.5767 37.6758 45.4903 37.4705 45.411C37.2698 45.3317 37.0341 45.264 36.7635 45.208C36.4928 45.152 36.1731 45.124 35.8045 45.124C35.2538 45.124 34.7568 45.215 34.3135 45.397C33.8701 45.5743 33.4921 45.831 33.1795 46.167C32.8668 46.503 32.6265 46.909 32.4585 47.385C32.2905 47.8563 32.2065 48.386 32.2065 48.974C32.2065 49.59 32.2951 50.143 32.4725 50.633C32.6498 51.1183 32.8995 51.5313 33.2215 51.872C33.5481 52.208 33.9425 52.4647 34.4045 52.642C34.8711 52.8193 35.3915 52.908 35.9655 52.908C36.1895 52.908 36.3971 52.8963 36.5885 52.873C36.7845 52.845 36.9711 52.8077 37.1485 52.761C37.3258 52.7143 37.4961 52.656 37.6595 52.586C37.8275 52.516 37.9931 52.439 38.1565 52.355V50.248H36.6725C36.5791 50.248 36.5021 50.22 36.4415 50.164C36.3855 50.108 36.3575 50.038 36.3575 49.954V49.107H39.5075ZM47.7533 52.789L47.7463 54H41.5163V43.948H47.7463V45.159H43.0143V48.344H46.8223V49.513H43.0143V52.789H47.7533ZM56.4494 45.194H53.2574V54H51.7734V45.194H48.5674V43.948H56.4494V45.194ZM68.0334 51.844C68.1174 51.844 68.1898 51.8767 68.2504 51.942L68.8384 52.586C68.4278 53.0713 67.9261 53.447 67.3334 53.713C66.7454 53.979 66.0361 54.112 65.2054 54.112C64.4774 54.112 63.8171 53.986 63.2244 53.734C62.6364 53.482 62.1324 53.1297 61.7124 52.677C61.2971 52.2243 60.9751 51.683 60.7464 51.053C60.5178 50.423 60.4034 49.73 60.4034 48.974C60.4034 48.218 60.5224 47.525 60.7604 46.895C61.0031 46.265 61.3414 45.7237 61.7754 45.271C62.2094 44.8183 62.7274 44.466 63.3294 44.214C63.9361 43.962 64.6058 43.836 65.3384 43.836C66.0524 43.836 66.6871 43.9527 67.2424 44.186C67.7978 44.4193 68.2808 44.7297 68.6914 45.117L68.2014 45.81C68.1688 45.8613 68.1268 45.9033 68.0754 45.936C68.0288 45.9687 67.9658 45.985 67.8864 45.985C67.7978 45.985 67.6928 45.9407 67.5714 45.852C67.4548 45.7633 67.2984 45.6653 67.1024 45.558C66.9111 45.446 66.6731 45.3457 66.3884 45.257C66.1038 45.1683 65.7491 45.124 65.3244 45.124C64.8251 45.124 64.3678 45.2127 63.9524 45.39C63.5371 45.5627 63.1778 45.8147 62.8744 46.146C62.5758 46.4727 62.3424 46.8763 62.1744 47.357C62.0111 47.833 61.9294 48.372 61.9294 48.974C61.9294 49.5853 62.0158 50.129 62.1884 50.605C62.3611 51.081 62.5991 51.4847 62.9024 51.816C63.2058 52.1473 63.5628 52.3993 63.9734 52.572C64.3841 52.7447 64.8274 52.831 65.3034 52.831C65.5928 52.831 65.8518 52.8147 66.0804 52.782C66.3138 52.7447 66.5261 52.691 66.7174 52.621C66.9134 52.551 67.0978 52.4623 67.2704 52.355C67.4431 52.243 67.6134 52.11 67.7814 51.956C67.8188 51.9233 67.8584 51.8977 67.9004 51.879C67.9424 51.8557 67.9868 51.844 68.0334 51.844ZM79.5113 48.974C79.5113 49.7253 79.3899 50.416 79.1473 51.046C78.9093 51.6713 78.5709 52.2127 78.1323 52.67C77.6936 53.1227 77.1686 53.475 76.5573 53.727C75.9459 53.979 75.2669 54.105 74.5203 54.105C73.7783 54.105 73.0993 53.979 72.4833 53.727C71.8719 53.475 71.3469 53.1227 70.9083 52.67C70.4743 52.2127 70.1359 51.6713 69.8933 51.046C69.6506 50.416 69.5293 49.7253 69.5293 48.974C69.5293 48.2273 69.6506 47.539 69.8933 46.909C70.1359 46.279 70.4743 45.7377 70.9083 45.285C71.3469 44.8277 71.8719 44.473 72.4833 44.221C73.0993 43.9643 73.7783 43.836 74.5203 43.836C75.2669 43.836 75.9459 43.9643 76.5573 44.221C77.1686 44.473 77.6936 44.8277 78.1323 45.285C78.5709 45.7377 78.9093 46.279 79.1473 46.909C79.3899 47.539 79.5113 48.2273 79.5113 48.974ZM77.9853 48.974C77.9853 48.3767 77.9036 47.84 77.7403 47.364C77.5769 46.888 77.3436 46.4843 77.0403 46.153C76.7416 45.8217 76.3776 45.5673 75.9483 45.39C75.5236 45.2127 75.0476 45.124 74.5203 45.124C73.9929 45.124 73.5146 45.2127 73.0853 45.39C72.6606 45.5673 72.2966 45.8217 71.9933 46.153C71.6899 46.4843 71.4566 46.888 71.2933 47.364C71.1299 47.84 71.0483 48.3767 71.0483 48.974C71.0483 49.576 71.1299 50.115 71.2933 50.591C71.4566 51.0623 71.6899 51.4637 71.9933 51.795C72.2966 52.1263 72.6606 52.3807 73.0853 52.558C73.5146 52.7307 73.9929 52.817 74.5203 52.817C75.0476 52.817 75.5236 52.7307 75.9483 52.558C76.3776 52.3807 76.7416 52.1263 77.0403 51.795C77.3436 51.4637 77.5769 51.0623 77.7403 50.591C77.9036 50.115 77.9853 49.576 77.9853 48.974ZM89.6155 43.948V54H88.8595C88.7429 54 88.6449 53.979 88.5655 53.937C88.4909 53.895 88.4139 53.8273 88.3345 53.734L82.6575 46.391C82.6669 46.517 82.6739 46.6407 82.6785 46.762C82.6879 46.8833 82.6925 46.9977 82.6925 47.105V54H81.3835V43.948H82.1535C82.2842 43.948 82.3822 43.9643 82.4475 43.997C82.5129 44.025 82.5852 44.0927 82.6645 44.2L88.3555 51.55C88.3415 51.4147 88.3299 51.284 88.3205 51.158C88.3159 51.0273 88.3135 50.906 88.3135 50.794V43.948H89.6155ZM98.9553 45.194H95.7633V54H94.2793V45.194H91.0733V43.948H98.9553V45.194ZM103.25 48.792C103.633 48.792 103.969 48.7453 104.258 48.652C104.552 48.5587 104.797 48.428 104.993 48.26C105.189 48.0873 105.336 47.8843 105.434 47.651C105.532 47.413 105.581 47.1517 105.581 46.867C105.581 46.2883 105.39 45.852 105.007 45.558C104.629 45.264 104.06 45.117 103.299 45.117H101.892V48.792H103.25ZM107.94 54H106.61C106.344 54 106.15 53.895 106.029 53.685L103.544 50.199C103.465 50.0823 103.378 50.0007 103.285 49.954C103.192 49.9027 103.052 49.877 102.865 49.877H101.892V54H100.401V43.948H103.299C103.948 43.948 104.505 44.0157 104.972 44.151C105.443 44.2817 105.831 44.4707 106.134 44.718C106.442 44.9607 106.668 45.2547 106.813 45.6C106.962 45.9453 107.037 46.3327 107.037 46.762C107.037 47.112 106.983 47.441 106.876 47.749C106.769 48.057 106.61 48.3347 106.4 48.582C106.195 48.8247 105.943 49.0347 105.644 49.212C105.345 49.3893 105.007 49.5247 104.629 49.618C104.816 49.73 104.977 49.8863 105.112 50.087L107.94 54ZM118.49 48.974C118.49 49.7253 118.368 50.416 118.126 51.046C117.888 51.6713 117.549 52.2127 117.111 52.67C116.672 53.1227 116.147 53.475 115.536 53.727C114.924 53.979 114.245 54.105 113.499 54.105C112.757 54.105 112.078 53.979 111.462 53.727C110.85 53.475 110.325 53.1227 109.887 52.67C109.453 52.2127 109.114 51.6713 108.872 51.046C108.629 50.416 108.508 49.7253 108.508 48.974C108.508 48.2273 108.629 47.539 108.872 46.909C109.114 46.279 109.453 45.7377 109.887 45.285C110.325 44.8277 110.85 44.473 111.462 44.221C112.078 43.9643 112.757 43.836 113.499 43.836C114.245 43.836 114.924 43.9643 115.536 44.221C116.147 44.473 116.672 44.8277 117.111 45.285C117.549 45.7377 117.888 46.279 118.126 46.909C118.368 47.539 118.49 48.2273 118.49 48.974ZM116.964 48.974C116.964 48.3767 116.882 47.84 116.719 47.364C116.555 46.888 116.322 46.4843 116.019 46.153C115.72 45.8217 115.356 45.5673 114.927 45.39C114.502 45.2127 114.026 45.124 113.499 45.124C112.971 45.124 112.493 45.2127 112.064 45.39C111.639 45.5673 111.275 45.8217 110.972 46.153C110.668 46.4843 110.435 46.888 110.272 47.364C110.108 47.84 110.027 48.3767 110.027 48.974C110.027 49.576 110.108 50.115 110.272 50.591C110.435 51.0623 110.668 51.4637 110.972 51.795C111.275 52.1263 111.639 52.3807 112.064 52.558C112.493 52.7307 112.971 52.817 113.499 52.817C114.026 52.817 114.502 52.7307 114.927 52.558C115.356 52.3807 115.72 52.1263 116.019 51.795C116.322 51.4637 116.555 51.0623 116.719 50.591C116.882 50.115 116.964 49.576 116.964 48.974ZM126.116 52.747V54H120.362V43.948H121.853V52.747H126.116ZM135.885 45.586C135.839 45.6653 135.79 45.7237 135.738 45.761C135.687 45.7983 135.622 45.817 135.542 45.817C135.458 45.817 135.363 45.7797 135.255 45.705C135.148 45.6257 135.013 45.5393 134.849 45.446C134.691 45.348 134.499 45.2617 134.275 45.187C134.051 45.1077 133.783 45.068 133.47 45.068C133.176 45.068 132.917 45.1077 132.693 45.187C132.474 45.2617 132.29 45.3667 132.14 45.502C131.991 45.6327 131.877 45.789 131.797 45.971C131.723 46.1483 131.685 46.342 131.685 46.552C131.685 46.8227 131.753 47.0467 131.888 47.224C132.028 47.4013 132.21 47.553 132.434 47.679C132.658 47.805 132.913 47.9147 133.197 48.008C133.482 48.1013 133.774 48.1993 134.072 48.302C134.371 48.4 134.663 48.5143 134.947 48.645C135.232 48.7757 135.486 48.9413 135.71 49.142C135.934 49.338 136.114 49.5807 136.249 49.87C136.389 50.1547 136.459 50.5047 136.459 50.92C136.459 51.3633 136.382 51.7787 136.228 52.166C136.079 52.5533 135.86 52.8917 135.57 53.181C135.281 53.4703 134.924 53.699 134.499 53.867C134.079 54.0303 133.601 54.112 133.064 54.112C132.742 54.112 132.43 54.0793 132.126 54.014C131.823 53.9533 131.536 53.867 131.265 53.755C130.995 53.6383 130.74 53.5007 130.502 53.342C130.269 53.1787 130.059 52.9967 129.872 52.796L130.299 52.082C130.341 52.026 130.39 51.9793 130.446 51.942C130.507 51.9047 130.575 51.886 130.649 51.886C130.747 51.886 130.859 51.9373 130.985 52.04C131.116 52.1427 131.275 52.257 131.461 52.383C131.653 52.5043 131.879 52.6163 132.14 52.719C132.406 52.8217 132.728 52.873 133.106 52.873C133.414 52.873 133.69 52.8333 133.932 52.754C134.175 52.67 134.378 52.5533 134.541 52.404C134.709 52.25 134.838 52.0657 134.926 51.851C135.015 51.6363 135.059 51.3983 135.059 51.137C135.059 50.843 134.992 50.6027 134.856 50.416C134.721 50.2293 134.541 50.073 134.317 49.947C134.093 49.821 133.839 49.7137 133.554 49.625C133.27 49.5363 132.978 49.4453 132.679 49.352C132.381 49.254 132.089 49.142 131.804 49.016C131.52 48.89 131.265 48.7267 131.041 48.526C130.817 48.3207 130.638 48.0663 130.502 47.763C130.367 47.455 130.299 47.077 130.299 46.629C130.299 46.2697 130.369 45.922 130.509 45.586C130.649 45.25 130.852 44.9537 131.118 44.697C131.389 44.4357 131.72 44.228 132.112 44.074C132.504 43.9153 132.952 43.836 133.456 43.836C134.021 43.836 134.539 43.927 135.01 44.109C135.486 44.2863 135.899 44.543 136.249 44.879L135.885 45.586ZM142.007 50.024V54H140.523V50.024L136.841 43.948H138.15C138.281 43.948 138.386 43.9807 138.465 44.046C138.545 44.1067 138.61 44.1883 138.661 44.291L140.845 48.05C140.934 48.2227 141.013 48.386 141.083 48.54C141.158 48.694 141.223 48.8457 141.279 48.995C141.331 48.8457 141.389 48.694 141.454 48.54C141.524 48.386 141.604 48.2227 141.692 48.05L143.869 44.291C143.916 44.207 143.979 44.13 144.058 44.06C144.142 43.9853 144.247 43.948 144.373 43.948H145.689L142.007 50.024ZM151.786 45.586C151.739 45.6653 151.69 45.7237 151.639 45.761C151.587 45.7983 151.522 45.817 151.443 45.817C151.359 45.817 151.263 45.7797 151.156 45.705C151.048 45.6257 150.913 45.5393 150.75 45.446C150.591 45.348 150.4 45.2617 150.176 45.187C149.952 45.1077 149.683 45.068 149.371 45.068C149.077 45.068 148.818 45.1077 148.594 45.187C148.374 45.2617 148.19 45.3667 148.041 45.502C147.891 45.6327 147.777 45.789 147.698 45.971C147.623 46.1483 147.586 46.342 147.586 46.552C147.586 46.8227 147.653 47.0467 147.789 47.224C147.929 47.4013 148.111 47.553 148.335 47.679C148.559 47.805 148.813 47.9147 149.098 48.008C149.382 48.1013 149.674 48.1993 149.973 48.302C150.271 48.4 150.563 48.5143 150.848 48.645C151.132 48.7757 151.387 48.9413 151.611 49.142C151.835 49.338 152.014 49.5807 152.15 49.87C152.29 50.1547 152.36 50.5047 152.36 50.92C152.36 51.3633 152.283 51.7787 152.129 52.166C151.979 52.5533 151.76 52.8917 151.471 53.181C151.181 53.4703 150.824 53.699 150.4 53.867C149.98 54.0303 149.501 54.112 148.965 54.112C148.643 54.112 148.33 54.0793 148.027 54.014C147.723 53.9533 147.436 53.867 147.166 53.755C146.895 53.6383 146.641 53.5007 146.403 53.342C146.169 53.1787 145.959 52.9967 145.773 52.796L146.2 52.082C146.242 52.026 146.291 51.9793 146.347 51.942C146.407 51.9047 146.475 51.886 146.55 51.886C146.648 51.886 146.76 51.9373 146.886 52.04C147.016 52.1427 147.175 52.257 147.362 52.383C147.553 52.5043 147.779 52.6163 148.041 52.719C148.307 52.8217 148.629 52.873 149.007 52.873C149.315 52.873 149.59 52.8333 149.833 52.754C150.075 52.67 150.278 52.5533 150.442 52.404C150.61 52.25 150.738 52.0657 150.827 51.851C150.915 51.6363 150.96 51.3983 150.96 51.137C150.96 50.843 150.892 50.6027 150.757 50.416C150.621 50.2293 150.442 50.073 150.218 49.947C149.994 49.821 149.739 49.7137 149.455 49.625C149.17 49.5363 148.878 49.4453 148.58 49.352C148.281 49.254 147.989 49.142 147.705 49.016C147.42 48.89 147.166 48.7267 146.942 48.526C146.718 48.3207 146.538 48.0663 146.403 47.763C146.267 47.455 146.2 47.077 146.2 46.629C146.2 46.2697 146.27 45.922 146.41 45.586C146.55 45.25 146.753 44.9537 147.019 44.697C147.289 44.4357 147.621 44.228 148.013 44.074C148.405 43.9153 148.853 43.836 149.357 43.836C149.921 43.836 150.439 43.927 150.911 44.109C151.387 44.2863 151.8 44.543 152.15 44.879L151.786 45.586ZM161.053 45.194H157.861V54H156.377V45.194H153.171V43.948H161.053V45.194ZM168.736 52.789L168.729 54H162.499V43.948H168.729V45.159H163.997V48.344H167.805V49.513H163.997V52.789H168.736ZM181.149 43.948V54H179.847V46.846C179.847 46.7387 179.849 46.6243 179.854 46.503C179.863 46.3817 179.873 46.258 179.882 46.132L176.536 52.271C176.419 52.4997 176.24 52.614 175.997 52.614H175.787C175.544 52.614 175.367 52.4997 175.255 52.271L171.846 46.111C171.874 46.3723 171.888 46.6173 171.888 46.846V54H170.579V43.948H171.685C171.816 43.948 171.916 43.962 171.986 43.99C172.061 44.0133 172.131 44.0833 172.196 44.2L175.556 50.22C175.621 50.3413 175.682 50.4697 175.738 50.605C175.794 50.7403 175.848 50.8757 175.899 51.011C175.997 50.7357 176.111 50.4697 176.242 50.213L179.539 44.2C179.6 44.0833 179.665 44.0133 179.735 43.99C179.81 43.962 179.912 43.948 180.043 43.948H181.149Z" fill="white"/>
</svg>
